<svg width="79" height="35" viewBox="0 0 79 35" fill="none" xmlns="http://www.w3.org/2000/svg">
<path d="M15.204 23.428V29H1.008V28.02L2.38 27.992V11.248L1.008 11.22V10.24H10.08V11.22L7.028 11.248V27.936C9.36133 27.1147 11.704 26.088 14.056 24.856L14.112 23.456L15.204 23.428ZM22.4512 15.98C24.0939 15.98 25.3819 16.5773 26.3152 17.772C27.2672 18.948 27.7339 20.544 27.7152 22.56L19.9872 22.812C20.1179 23.9133 20.5005 24.7533 21.1352 25.332C21.7699 25.9107 22.6099 26.2 23.6552 26.2C25.1112 26.2 26.2965 25.7987 27.2112 24.996L27.7152 25.444C27.0619 26.6947 26.1752 27.6747 25.0552 28.384C23.9539 29.0747 22.7779 29.42 21.5272 29.42C19.8285 29.42 18.4752 28.86 17.4672 27.74C16.4779 26.6013 15.9832 25.0707 15.9832 23.148C15.9832 22.0093 16.2072 20.88 16.6552 19.76C17.1219 18.64 17.7099 17.7067 18.4192 16.96C18.9045 16.68 19.5299 16.4467 20.2952 16.26C21.0605 16.0733 21.7792 15.98 22.4512 15.98ZM23.5712 21.636C23.5525 20.3293 23.3659 19.2933 23.0112 18.528C22.6565 17.7627 22.1525 17.3053 21.4992 17.156C21.0325 17.6413 20.6499 18.3227 20.3512 19.2C20.0712 20.0587 19.9312 20.9453 19.9312 21.86V21.944L23.5712 21.636ZM35.028 15.98C36.8947 15.98 38.3973 16.5307 39.536 17.632C40.6747 18.7333 41.244 20.3013 41.244 22.336C41.244 23.2133 41.0853 24.1187 40.768 25.052C40.4693 25.9853 40.0213 26.8067 39.424 27.516C38.8267 28.0947 38.1267 28.5613 37.324 28.916C36.54 29.252 35.7093 29.42 34.832 29.42C32.9653 29.42 31.4627 28.8693 30.324 27.768C29.1853 26.6667 28.616 25.0987 28.616 23.064C28.616 22.2053 28.7747 21.3093 29.092 20.376C29.4093 19.4427 29.8667 18.6213 30.464 17.912C31.0613 17.3333 31.752 16.8667 32.536 16.512C33.3387 16.1573 34.1693 15.98 35.028 15.98ZM32.648 21.72C32.648 23.4933 32.9933 24.8187 33.684 25.696C34.3933 26.5733 35.4293 27.096 36.792 27.264C36.9227 26.704 37.0253 26.0787 37.1 25.388C37.1747 24.6973 37.212 24.128 37.212 23.68C37.212 21.888 36.8573 20.5627 36.148 19.704C35.4573 18.8267 34.44 18.304 33.096 18.136C32.9653 18.7147 32.8533 19.3493 32.76 20.04C32.6853 20.7307 32.648 21.2907 32.648 21.72ZM42.0691 28.188L43.1051 28.104L42.9651 11.332L41.9011 11.556L41.6211 10.744L46.8011 9.176L47.1931 9.848L47.0531 28.104L48.0891 28.188V29H42.0691V28.188ZM60.3551 27.544L56.2391 29.476C55.7351 29.1213 55.3898 28.636 55.2031 28.02C54.5311 28.4307 53.8498 28.7667 53.1591 29.028C52.4871 29.2893 51.8991 29.42 51.3951 29.42C50.6298 29.42 50.0044 29.1493 49.5191 28.608C49.0338 28.0667 48.7911 27.376 48.7911 26.536C48.7911 26.1627 48.8284 25.7613 48.9031 25.332C48.9964 24.884 49.1084 24.5293 49.2391 24.268L55.1751 23.316L55.2311 22.504C55.2684 21.664 55.0911 21.0107 54.6991 20.544C54.3071 20.0587 53.6724 19.816 52.7951 19.816C52.4031 19.816 51.9924 19.8627 51.5631 19.956C51.1338 20.0307 50.7698 20.1333 50.4711 20.264L50.0231 21.216L49.2671 20.936L50.5551 16.904C51.9924 16.288 53.3551 15.98 54.6431 15.98C55.9684 15.98 57.0511 16.3347 57.8911 17.044C58.7311 17.7347 59.1511 18.8267 59.1511 20.32L59.1231 20.88L58.8431 24.66L58.7871 25.668C58.7871 26.004 58.8151 26.2747 58.8711 26.48C58.9271 26.6667 59.0204 26.8627 59.1511 27.068L60.0191 26.732L60.3551 27.544ZM53.9991 27.404C54.2978 27.404 54.6431 27.292 55.0351 27.068L55.0071 26.48L55.0351 25.864L55.1191 24.268L52.9631 24.772C52.8884 25.0147 52.8511 25.3413 52.8511 25.752C52.8511 26.312 52.9631 26.732 53.1871 27.012C53.4111 27.2733 53.6818 27.404 53.9991 27.404Z" fill="white"/>
<circle cx="71" cy="22" r="6" stroke="white" stroke-width="2"/>
<path d="M78.4493 18.4289C77.7308 19.1727 75.9727 18.9475 75.0691 18.0747C74.1656 17.2019 73.7364 15.3141 74.4549 14.5703C75.1734 13.8266 77.028 15.9991 77.028 15.9991C77.028 15.9991 79.1678 17.6851 78.4493 18.4289Z" fill="white"/>
</svg>
